<?xml version="1.0" encoding="UTF-8"?>
<svg width="200" height="200" viewBox="0 0 200 200" xmlns="http://www.w3.org/2000/svg">
  <circle fill="currentColor" cx="100" cy="100" r="40" />
  <g transform="translate(100,100)">
    <rect fill="currentColor" x="-5" y="-45" width="10" height="20" transform="rotate(0)" />
    <rect fill="currentColor" x="-5" y="-45" width="10" height="20" transform="rotate(30)" />
    <rect fill="currentColor" x="-5" y="-45" width="10" height="20" transform="rotate(60)" />
    <rect fill="currentColor" x="-5" y="-45" width="10" height="20" transform="rotate(90)" />
    <rect fill="currentColor" x="-5" y="-45" width="10" height="20" transform="rotate(120)" />
    <rect fill="currentColor" x="-5" y="-45" width="10" height="20" transform="rotate(150)" />
    <rect fill="currentColor" x="-5" y="-45" width="10" height="20" transform="rotate(180)" />
    <rect fill="currentColor" x="-5" y="-45" width="10" height="20" transform="rotate(210)" />
    <rect fill="currentColor" x="-5" y="-45" width="10" height="20" transform="rotate(240)" />
    <rect fill="currentColor" x="-5" y="-45" width="10" height="20" transform="rotate(270)" />
    <rect fill="currentColor" x="-5" y="-45" width="10" height="20" transform="rotate(300)" />
    <rect fill="currentColor" x="-5" y="-45" width="10" height="20" transform="rotate(330)" />
  </g>
</svg> 