<?xml version="1.0" encoding="UTF-8"?>
<svg width="200" height="200" viewBox="0 0 200 200" xmlns="http://www.w3.org/2000/svg">
  <path fill="currentColor" d="M40,120 C60,110 80,105 100,105 C120,105 140,110 160,120 C140,130 120,135 100,135 C80,135 60,130 40,120 Z" />
  <path fill="currentColor" d="M40,140 C60,130 80,125 100,125 C120,125 140,130 160,140 C140,150 120,155 100,155 C80,155 60,150 40,140 Z" />
  <path fill="currentColor" d="M70,80 L130,80 C140,80 150,70 150,60 C150,50 140,40 130,40 L70,40 C60,40 50,50 50,60 C50,70 60,80 70,80 Z" />
</svg> 